<svg xmlns="http://www.w3.org/2000/svg" width="512" height="512" style="shape-rendering:geometricPrecision;text-rendering:geometricPrecision;image-rendering:optimizeQuality;fill-rule:evenodd;clip-rule:evenodd">
  <path fill="#f6ee65" d="M177.5 66.5h-11a795.153 795.153 0 0 0-33-20c.157 6.785 1.49 13.452 4 20h-5a601.402 601.402 0 0 0-5.5-19 132.238 132.238 0 0 0-10.5 19h-6a302.136 302.136 0 0 1 11.5-20c.688-.832.521-1.498-.5-2a1690.713 1690.713 0 0 1-39 11c-.176 5.473 1.49 10.473 5 15a59.417 59.417 0 0 0-8 12c-5.28-5.176-8.614-10.676-10-16.5-6.768-17.203-5.602-34.37 3.5-51.5 1.841-2.678 4.341-4.345 7.5-5 32.624 18.8 64.957 37.8 97 57Z" style="opacity:.958"/>
  <path fill="#b83d64" d="M317.5 66.5h-13c-.111-.617-.444-1.117-1-1.5 2.168-2.665 3.835-5.665 5-9 2.177-6.463 4.844-13.13 8-20l-1-1 4-4 109-11.5c5.344.846 7.177 3.846 5.5 9-.5 1.167-1.333 2-2.5 2.5a6998.52 6998.52 0 0 0-105 11.5 181.16 181.16 0 0 0-9 24Z" style="opacity:.931"/>
  <path fill="#fbb860" d="M86.5 19.5c11.64 6.822 23.306 13.655 35 20.5a966.364 966.364 0 0 1-42 10.5c-1.103-11.16 1.23-21.494 7-31ZM110.5 66.5h-1c-7.528-.972-14.528.361-21 4h-1c-3.51-4.527-5.176-9.527-5-15a1690.713 1690.713 0 0 0 39-11c1.021.502 1.188 1.168.5 2a302.136 302.136 0 0 0-11.5 20Z" style="opacity:.995"/>
  <path fill="#fbb960" d="M166.5 66.5h-29c-2.51-6.548-3.843-13.215-4-20a795.153 795.153 0 0 1 33 20ZM132.5 66.5h-16a132.238 132.238 0 0 1 10.5-19 601.402 601.402 0 0 1 5.5 19Z" style="opacity:.995"/>
  <path fill="#c6d591" d="M109.5 66.5h6a489.576 489.576 0 0 0-10 18.5c1.848 2.093 4.181 3.426 7 4 8.748 2.16 17.414 1.994 26-.5a268.055 268.055 0 0 1-6-22h5a98.473 98.473 0 0 0 6 21c9.914-4.582 17.58-11.582 23-21h12a32.462 32.462 0 0 1-.5 8c-16.996 25.402-40.496 34.569-70.5 27.5-10.872-3.93-20.206-10.096-28-18.5v-1a59.417 59.417 0 0 1 8-12h1c2.273 5.44 6.106 9.44 11.5 12a64.572 64.572 0 0 0 9.5-16Z" style="opacity:1"/>
  <path fill="#caaf8c" d="M115.5 66.5h17a268.055 268.055 0 0 0 6 22c-8.586 2.494-17.252 2.66-26 .5-2.819-.574-5.152-1.907-7-4a489.576 489.576 0 0 1 10-18.5Z" style="opacity:.999"/>
  <path fill="#caaf8c" d="M109.5 66.5a64.572 64.572 0 0 1-9.5 16c-5.394-2.56-9.227-6.56-11.5-12 6.472-3.639 13.472-4.972 21-4Z" style="opacity:.998"/>
  <path fill="#caaf8c" d="M137.5 66.5h29c-5.42 9.418-13.086 16.418-23 21a98.473 98.473 0 0 1-6-21Z" style="opacity:1"/>
  <path fill="#5e9bee" d="M178.5 66.5h126l-35 90v1c-11.585 5.271-23.751 8.271-36.5 9a45.94 45.94 0 0 1-11.5-1.5l-30-11a31.317 31.317 0 0 0-14 1c-12.999 6.889-26.832 10.723-41.5 11.5a45.94 45.94 0 0 1-11.5-1.5 379.973 379.973 0 0 1-29-11c-1.759-.798-3.425-.631-5 .5 9.863 34.69 32.863 52.19 69 52.5 3.437 1.105 5.937 3.272 7.5 6.5-1.732 41.046 14.768 72.212 49.5 93.5a120.624 120.624 0 0 0 23 9c50.367 8.565 87.201-9.602 110.5-54.5 6.336-15.347 9.002-31.347 8-48 1.563-3.228 4.063-5.395 7.5-6.5 29.933.199 51.6-12.968 65-39.5a62.744 62.744 0 0 0-11-1.5 513.702 513.702 0 0 1-34-12 31.317 31.317 0 0 0-14 1c-12.999 6.889-26.832 10.723-41.5 11.5a45.94 45.94 0 0 1-11.5-1.5 806.568 806.568 0 0 1-30-11 18.453 18.453 0 0 0-6-.5l34-87h1c37.668-.167 75.335 0 113 .5 6.681 2.013 11.514 6.18 14.5 12.5a668.275 668.275 0 0 1 1 72c-5.653 32.324-24.153 53.491-55.5 63.5a82.87 82.87 0 0 1-22 2.5c.214 49.428-22.119 84.261-67 104.5a87.225 87.225 0 0 1-16 4.5v113c19.374-2.549 37.041 1.618 53 12.5 14.087 12.342 20.254 27.842 18.5 46.5l-2.5 2.5a8460.02 8460.02 0 0 1-184 0l-4-4c.283-24.213 11.283-41.88 33-53 13.014-4.045 26.348-5.545 40-4.5v-113c-46.232-11.733-73.732-41.066-82.5-88-.5-6.992-.666-13.992-.5-21-36.604-.701-61.438-18.035-74.5-52a80.482 80.482 0 0 1-3-15 750.452 750.452 0 0 1 .5-67c7.794 8.404 17.128 14.57 28 18.5 30.004 7.069 53.504-2.098 70.5-27.5.497-2.646.664-5.313.5-8Z" style="opacity:.31"/>
  <path fill="#9b5a90" d="M304.5 66.5h12l-34 87a142.504 142.504 0 0 0-13 3l35-90Z" style="opacity:1"/>
  <path fill="#bbb065" d="M269.5 157.5a381.367 381.367 0 0 0-12 29.5c1.108 5.023 4.108 6.69 9 5a544.514 544.514 0 0 0 16-38.5 18.453 18.453 0 0 1 6 .5 806.568 806.568 0 0 0 30 11 45.94 45.94 0 0 0 11.5 1.5c14.668-.777 28.501-4.611 41.5-11.5a31.317 31.317 0 0 1 14-1 513.702 513.702 0 0 0 34 12c3.711.175 7.378.675 11 1.5-13.4 26.532-35.067 39.699-65 39.5-3.437 1.105-5.937 3.272-7.5 6.5 1.002 16.653-1.664 32.653-8 48-23.299 44.898-60.133 63.065-110.5 54.5a120.624 120.624 0 0 1-23-9c-34.732-21.288-51.232-52.454-49.5-93.5-1.563-3.228-4.063-5.395-7.5-6.5-36.137-.31-59.137-17.81-69-52.5 1.575-1.131 3.241-1.298 5-.5a379.973 379.973 0 0 0 29 11 45.94 45.94 0 0 0 11.5 1.5c14.668-.777 28.501-4.611 41.5-11.5a31.317 31.317 0 0 1 14-1l30 11a45.94 45.94 0 0 0 11.5 1.5c12.749-.729 24.915-3.729 36.5-9Z" style="opacity:.526"/>
  <path fill="#bb7a65" d="M282.5 153.5a544.514 544.514 0 0 1-16 38.5c-4.892 1.69-7.892.023-9-5a381.367 381.367 0 0 1 12-29.5v-1a142.504 142.504 0 0 1 13-3Z" style="opacity:1"/>
  <path fill="#dac467" d="M212.5 176.5a24.362 24.362 0 0 1 10 1.5l22.5 22.5c2.31 4.785 1.643 9.119-2 13L224.5 232c-3.911 3.597-8.244 4.263-13 2L189 211.5c-2.219-4.569-1.886-8.902 1-13a693.941 693.941 0 0 1 22.5-22ZM303.5 196.5a195.229 195.229 0 0 1 35 8.5c4.163 2.821 5.663 6.655 4.5 11.5a194.177 194.177 0 0 0-6 23c-1.025 6.358-4.691 10.025-11 11a262.228 262.228 0 0 1-32.5-9.5c-3.535-2.707-4.702-6.207-3.5-10.5 2.792-9.623 5.459-19.29 8-29a37.84 37.84 0 0 1 5.5-5ZM244.5 243.5a896.657 896.657 0 0 1 29 6.5c6.171 1.006 9.837 4.506 11 10.5a1718.989 1718.989 0 0 1-8.5 32c-3.099 4.466-7.265 5.966-12.5 4.5l-26-7c-5.491-2.482-7.657-6.649-6.5-12.5l7-27c1.694-2.858 3.861-5.191 6.5-7Z" style="opacity:.671"/>
</svg>
